<svg xmlns="http://www.w3.org/2000/svg" width="18" height="15" viewBox="0 0 18 15" fill="none">
<path fill-rule="evenodd" clip-rule="evenodd" d="M18.0006 7.49993C18.0006 7.91414 17.6648 8.24993 17.2506 8.24993H2.5609L8.03122 13.7193C8.32427 14.0124 8.32427 14.4875 8.03122 14.7806C7.73816 15.0736 7.26302 15.0736 6.96996 14.7806L0.219965 8.03055C0.0791322 7.88988 0 7.69899 0 7.49993C0 7.30087 0.0791322 7.10998 0.219965 6.9693L6.96996 0.219304C7.26302 -0.0737523 7.73816 -0.0737523 8.03122 0.219304C8.32427 0.51236 8.32427 0.987497 8.03122 1.28055L2.5609 6.74993H17.2506C17.6648 6.74993 18.0006 7.08571 18.0006 7.49993Z" fill="#0D141C"/>
</svg>